PathFileType	4	(X/Y/Z)	G:\TennisProject\Miami_Dimitrov_Sinner_masked_Sports2D\Miami_Dimitrov_Sinner_masked_Sports2D_px_person00.trc
DataRate	CameraRate	NumFrames	NumMarkers	Units	OrigDataRate	OrigDataStartFrame	OrigNumFrames
25	25	11	22	m	25	62	499
Frame#	Time	Hip			RHip			RKnee			RAnkle			RBigToe			RSmallToe			RHeel			LHip			LKnee			LAnkle			LBigToe			LSmallToe			LHeel			Neck			Head			Nose			RShoulder			RElbow			RWrist			LShoulder			LElbow			LWrist		
		X1	Y1	Z1	X2	Y2	Z2	X3	Y3	Z3	X4	Y4	Z4	X5	Y5	Z5	X6	Y6	Z6	X7	Y7	Z7	X8	Y8	Z8	X9	Y9	Z9	X10	Y10	Z10	X11	Y11	Z11	X12	Y12	Z12	X13	Y13	Z13	X14	Y14	Z14	X15	Y15	Z15	X16	Y16	Z16	X17	Y17	Z17	X18	Y18	Z18	X19	Y19	Z19	X20	Y20	Z20	X21	Y21	Z21	X22	Y22	Z22
62	2.48	899.5304434876609	250.5635836771579	0.0	892.6358585907717	251.03978182604084	0.0	889.2400448266742	272.94252225874357	0.0	885.3176974668436	292.98200231626845	0.0	886.2829006699027	298.7495358597371	0.0	883.3299522017666	298.6190591355088	0.0	885.8362631267389	295.07854392862885	0.0	906.4314520559287	250.4323319166533	0.0	916.4252971765302	271.76441733988685	0.0	928.1338072345214	291.95185540825474	0.0	936.5729867585966	298.15426592107525	0.0	937.9539038153491	296.59978543762224	0.0	928.9625389756275	295.75023546771774	0.0	898.9455110469772	219.96250030150543	0.0	898.6632701611859	201.03389758190627	0.0	898.5720066730428	212.16618271653022	0.0	887.4952557047667	224.23569218586388	0.0	881.3887720782044	239.61194353309116	0.0	891.3568322408476	247.59068147083173	0.0	909.795320716888	222.95034910276422	0.0	913.7573886637814	237.21182492218117	0.0	910.0653888500465	247.94226433244035	0.0
63	2.52	907.0595029897439	252.97249990136226	0.0	899.7081525071579	253.1172839442287	0.0	894.5967931890136	274.8540049466278	0.0	887.430485674633	293.28859902530417	0.0	886.3910722341266	298.8311539058021	0.0	883.5890009332668	298.4492981722769	0.0	887.8765904518356	295.4580816743138	0.0	913.9984459482544	252.821415690815	0.0	925.8606129740217	272.552078293882	0.0	940.2143830215844	291.7958240081016	0.0	949.1697923977373	297.597188994646	0.0	950.5350248564641	295.90005395125297	0.0	941.2923004463744	295.25604442857855	0.0	906.9542166321953	223.22183218832708	0.0	906.266089204624	205.10982106398924	0.0	906.3247390152429	215.51016351116195	0.0	895.4109046920846	227.4097000775317	0.0	889.4868273385205	242.40718709518973	0.0	900.9776964731511	249.7466732932337	0.0	917.8823973434994	226.248878859056	0.0	921.821397196104	240.1504815168611	0.0	918.1493741313526	250.53993046805203	0.0
64	2.56	914.6918801725537	254.52533451543295	0.0	907.017996229898	254.84488999314215	0.0	901.5584325082245	276.7637187046949	0.0	889.1004044518284	293.06049726918485	0.0	886.4498917315058	298.9009046670234	0.0	883.9136184210097	297.913517364302	0.0	888.8821986688456	295.124188034282	0.0	921.8170413790272	254.54142496126653	0.0	934.0916018952211	273.1328989468467	0.0	947.6859316349528	292.36704337907855	0.0	956.0357439220609	297.666273980728	0.0	957.3882176605475	295.67207246435663	0.0	948.1459033696093	295.6882416036447	0.0	915.2456168323707	226.51527828249377	0.0	914.3477738337814	209.91564281748532	0.0	914.5023598795945	218.8025956185963	0.0	903.8591899924959	230.4776771200829	0.0	897.7178674619465	245.06852543065838	0.0	909.7432846154724	252.07085228468895	0.0	925.7551458996495	229.12709525800148	0.0	930.0122789476811	242.2290218832856	0.0	928.5157553580477	251.89702022145102	0.0
65	2.6	921.3081275461391	255.16001663017764	0.0	913.7641454725526	255.940727349209	0.0	910.1395485432747	278.18602059160355	0.0	892.3016031673068	292.9096177104759	0.0	888.6004174554058	298.8861593507743	0.0	886.4531831755547	297.10115548457975	0.0	891.2498534463203	294.6794822022084	0.0	928.4692860929358	255.21241939029093	0.0	940.4790909763243	273.64803200942174	0.0	950.0439529224498	292.6768661414749	0.0	957.5671156459922	297.77726530160965	0.0	958.881539671348	295.6867103311315	0.0	949.6639912039616	295.90054033628076	0.0	923.0073940037569	228.7925966120417	0.0	922.2135090207285	212.9669901689045	0.0	922.4516861410729	220.77461311511064	0.0	911.7923102021116	232.45838571983046	0.0	905.2223065305476	247.23296759804376	0.0	916.6515103226457	253.8108330388607	0.0	932.9067389605193	230.72956700642806	0.0	937.0079368230288	243.20170101498456	0.0	936.9818939230546	252.0723161996661	0.0
66	2.64	926.9417578505927	255.24475865527074	0.0	919.9658516730237	256.5632767684885	0.0	919.0202926863016	278.20119608968173	0.0	898.2328683510567	292.6499990827896	0.0	894.2791503811434	298.85464596683096	0.0	892.382293015869	296.83000721705133	0.0	896.538284810291	294.0637142950211	0.0	933.6941901921145	255.28002786511593	0.0	945.142237660333	273.5210838810805	0.0	949.8430680183632	292.43848897537447	0.0	957.3269800440376	297.6886570051221	0.0	958.3255716365913	295.76231893444043	0.0	948.8594508812026	295.69683718595525	0.0	929.7119323250754	229.30631765845678	0.0	929.3795129083273	213.33897112827515	0.0	929.6497037790436	220.9535853703797	0.0	918.6652147172376	232.85659277569874	0.0	911.7747813142761	247.9439993838975	0.0	921.6881524288867	254.93070881066345	0.0	939.2304946666437	230.96408352609788	0.0	942.3010760286941	243.17267624372903	0.0	942.3776132397677	252.06630572485233	0.0
67	2.68	932.2563375059468	254.80459294055856	0.0	925.7707952173654	256.5705332423692	0.0	927.2248219212825	276.70420479478014	0.0	906.8819763613011	291.23273129456874	0.0	904.6374574794734	298.3394968951262	0.0	902.5268915165315	296.9354254387538	0.0	904.7569612064119	292.112495211053	0.0	938.4391599073052	255.00713785296892	0.0	948.8994535203321	272.2181193863952	0.0	949.6938570689848	291.87169289271134	0.0	957.549320599909	297.52822664224107	0.0	957.8876603613962	295.6503297523948	0.0	948.2076643108567	295.2612356456203	0.0	935.376567737479	228.27905903861281	0.0	935.7559418833853	212.72975496575233	0.0	935.9620395072981	219.8942935667808	0.0	924.526320226405	231.782855962259	0.0	917.6272516615487	246.8310621031731	0.0	925.7190252272967	255.51396055084084	0.0	944.7663161854556	230.17850240856077	0.0	946.4891825276352	242.6805437533871	0.0	946.1053625622269	252.7334913181423	0.0
68	2.72	936.7335226811947	253.67235926610022	0.0	930.2328638661301	255.55050612199207	0.0	934.7416453552167	274.4639098210648	0.0	916.6441537996428	288.92071110491645	0.0	918.4664744139957	297.22398851559024	0.0	915.4337916414515	296.58773916988605	0.0	914.1229477943959	289.34166194956106	0.0	942.473240972258	254.00122060260105	0.0	952.4719036558063	270.23905516652445	0.0	950.2874321967267	291.01233186462736	0.0	958.1851033680555	297.42994098043715	0.0	958.0768850753486	295.5214953216283	0.0	948.1370074353729	294.5635825657609	0.0	940.2752940997102	226.46570127859283	0.0	941.3370089342552	211.80494401043453	0.0	941.5216993730987	218.28704113327592	0.0	929.6379190508184	229.93062827062388	0.0	923.1498628299996	245.00230547369625	0.0	930.2762824012932	255.85118563490522	0.0	949.4715417867206	228.78175220874522	0.0	950.1760540466726	242.0434485094749	0.0	949.5796782661623	253.52934952669756	0.0
69	2.7600000000000002	939.5610390422714	252.3372626535165	0.0	932.7569361669075	253.96609537870478	0.0	941.3353986955376	272.57832503823727	0.0	924.4786646285244	287.63457173760224	0.0	930.3168100609281	296.5307394368946	0.0	925.9211604685529	296.1160347156259	0.0	921.7488017537029	288.12332375704676	0.0	944.9281506367422	252.4977118673569	0.0	956.1361782488905	268.5458671888533	0.0	952.0277529593747	290.003781452929	0.0	959.9539329753021	297.1821975098333	0.0	959.9045479597717	295.51641645933523	0.0	949.2846332799647	293.74104777016237	0.0	944.7196796979435	224.6191501600331	0.0	946.3425326212617	209.45768378012534	0.0	946.6333991618008	216.53675503986568	0.0	934.3665128600346	228.27225228580224	0.0	928.6834530956919	243.87681269468908	0.0	936.2420230686886	256.42817946457825	0.0	953.3466996931736	227.47757288738885	0.0	953.3969602570705	241.73406885521118	0.0	952.9912014099461	254.0937739416657	0.0
70	2.8000000000000003	941.4243696736266	251.3381767196015	0.0	934.5944372847841	252.75395991999915	0.0	946.0854778919088	272.24428592368827	0.0	928.3437234973801	288.1764694359202	0.0	935.3776288399608	296.8010044082825	0.0	930.2335128738353	296.3425846130475	0.0	925.6601589132459	289.07392311471904	0.0	946.540568588031	251.38025643125056	0.0	960.2836444208849	267.570919883555	0.0	956.1836687751754	289.4142327060314	0.0	964.9897484901319	296.26573220961825	0.0	964.9656467869634	294.86203568279643	0.0	953.1512839052248	293.2233173979438	0.0	949.0814049232872	223.26003958802215	0.0	951.1711461953998	206.9488963453827	0.0	951.5982203049364	215.1846608239268	0.0	939.0640282646605	227.2383787534339	0.0	934.6115129024365	243.81430752636328	0.0	942.8115299602596	257.19056689798646	0.0	956.9494989785837	226.7895273826009	0.0	956.6388337201065	241.98804411217466	0.0	956.6791247556329	254.95345058878866	0.0
71	2.84	943.7616793761518	250.5067771539316	0.0	937.3278758056542	252.02185756077802	0.0	948.611864332055	273.7396427682945	0.0	929.1290756655478	289.41595370295346	0.0	935.2053434818204	297.2447233458656	0.0	930.4577491515374	296.9758258199889	0.0	926.2946430072886	290.6805436673216	0.0	948.932480092002	250.77306605131983	0.0	965.2137272349632	266.9241408270184	0.0	963.2623831967526	289.4168786033382	0.0	973.7518421631501	294.400738823266	0.0	973.4294799774141	292.8165774448601	0.0	960.2582373867587	293.1731945675079	0.0	953.6498378470478	222.59388994676013	0.0	956.1363126508764	206.64496249992294	0.0	956.6358189821282	214.67516768382472	0.0	943.8820307877028	226.79043513175714	0.0	941.4464636901212	244.57478318882374	0.0	949.5469460290574	258.03537951994394	0.0	961.0837971251174	226.5145798533963	0.0	960.9109328169909	242.15924765020515	0.0	961.9292920183827	256.2236878299754	0.0
72	2.88	947.2786821819949	250.15995490219234	0.0	941.3395501523061	251.81586680793282	0.0	949.8497507100747	276.0188016315823	0.0	929.0873843776701	290.259070307294	0.0	934.3101716452234	297.24397647573716	0.0	930.3472230371847	297.138819441956	0.0	925.7479194410892	291.63829727157537	0.0	952.6985044206206	250.60707500761788	0.0	970.653989615427	265.92455218907503	0.0	971.5755072641077	289.4087305416318	0.0	983.3535857629322	292.0256380660662	0.0	982.7298355633798	290.09005071384547	0.0	969.108143266883	293.0960002791559	0.0	958.5775639525095	222.2801782631429	0.0	961.3988860740674	206.97340004029797	0.0	961.7914672888958	214.47168329521685	0.0	949.1828660523829	226.9440221013818	0.0	949.2969150719812	245.69500027844123	0.0	957.468611854607	258.7754778853707	0.0	965.7019188598562	226.01753625773074	0.0	966.2291008629775	241.70198810742264	0.0	968.6355425475275	257.0308437174267	0.0
